<mxfile host="app.diagrams.net" modified="2020-08-24T10:54:33.642Z" agent="5.0 (Macintosh; Intel Mac OS X 10_15_5) AppleWebKit/537.36 (KHTML, like Gecko) Chrome/84.0.4147.135 Safari/537.36" etag="uDGVPE82MJfIiMGEHHcN" version="13.6.4" type="github">
  <diagram id="kqv_Jok6dsM3Ba1rM6-x" name="Page-1">
    <mxGraphModel dx="1261" dy="843" grid="1" gridSize="10" guides="1" tooltips="1" connect="1" arrows="1" fold="1" page="1" pageScale="1" pageWidth="827" pageHeight="1169" math="0" shadow="0">
      <root>
        <mxCell id="0" />
        <mxCell id="1" parent="0" />
        <mxCell id="su0CAzpGu9xzXqb8OC6O-1" value="&lt;b&gt;规则(Expression)&lt;/b&gt;" style="rounded=0;whiteSpace=wrap;html=1;fillColor=#f9f7ed;strokeColor=#36393d;" vertex="1" parent="1">
          <mxGeometry x="200" y="220" width="300" height="50" as="geometry" />
        </mxCell>
        <mxCell id="su0CAzpGu9xzXqb8OC6O-2" value="规则解析" style="rounded=0;whiteSpace=wrap;html=1;fillColor=#d5e8d4;strokeColor=#82b366;" vertex="1" parent="1">
          <mxGeometry x="200" y="280" width="300" height="30" as="geometry" />
        </mxCell>
        <mxCell id="su0CAzpGu9xzXqb8OC6O-3" value="特征服务" style="rounded=0;whiteSpace=wrap;html=1;fillColor=#f5f5f5;strokeColor=#666666;fontColor=#333333;" vertex="1" parent="1">
          <mxGeometry x="200" y="440" width="380" height="50" as="geometry" />
        </mxCell>
        <mxCell id="su0CAzpGu9xzXqb8OC6O-4" value="规则剪枝" style="rounded=0;whiteSpace=wrap;html=1;fillColor=#cce5ff;strokeColor=#36393d;" vertex="1" parent="1">
          <mxGeometry x="200" y="320" width="160" height="40" as="geometry" />
        </mxCell>
        <mxCell id="su0CAzpGu9xzXqb8OC6O-5" value="规则计算" style="rounded=0;whiteSpace=wrap;html=1;fillColor=#cce5ff;strokeColor=#36393d;" vertex="1" parent="1">
          <mxGeometry x="370" y="320" width="130" height="40" as="geometry" />
        </mxCell>
        <mxCell id="su0CAzpGu9xzXqb8OC6O-6" value="" style="shape=flexArrow;endArrow=classic;html=1;" edge="1" parent="1">
          <mxGeometry width="50" height="50" relative="1" as="geometry">
            <mxPoint x="380" y="378" as="sourcePoint" />
            <mxPoint x="380" y="428" as="targetPoint" />
          </mxGeometry>
        </mxCell>
        <mxCell id="su0CAzpGu9xzXqb8OC6O-7" value="调用" style="edgeLabel;html=1;align=center;verticalAlign=middle;resizable=0;points=[];" vertex="1" connectable="0" parent="su0CAzpGu9xzXqb8OC6O-6">
          <mxGeometry x="-0.28" y="-4" relative="1" as="geometry">
            <mxPoint as="offset" />
          </mxGeometry>
        </mxCell>
        <mxCell id="su0CAzpGu9xzXqb8OC6O-8" value="元数据&lt;br&gt;管理" style="rounded=0;whiteSpace=wrap;html=1;fillColor=#f5f5f5;strokeColor=#666666;fontColor=#333333;" vertex="1" parent="1">
          <mxGeometry x="510" y="220" width="70" height="140" as="geometry" />
        </mxCell>
      </root>
    </mxGraphModel>
  </diagram>
</mxfile>
